# xmcd
#
# Track frame offsets:
#	150
#	14990
#	26320
#	36890
#	48212
#	57933
#	67527
#	80408
#	92210
#	103056
#	115411
#	127629
#	139653
#	150361
#	163449
#	175504
#	187774
#	199805
#	213793
#	224799
#	236096
#	245593
#	261157
#	273166
#	283987
#
# Disc length: 3932 seconds
# Revision: 0
# Processed by: cddbd v1.5.2PL0 Copyright (c) Steve Scherf et al.
# Submitted via: dBpowerAMP V12.0
#
DISCID=620f5a19
DTITLE=T-Bone Walker - The Imperial Blues Years
DYEAR=1952
DGENRE=Blues
TTITLE0=I Got The Blues Again
TTITLE1=Wanderin' Heart
TTITLE2=News For My Baby
TTITLE3=When The Sun Goes Down
TTITLE4=Party Girl
TTITLE5=The Hard Way
TTITLE6=Blue Mood
TTITLE7=My Baby Is Now On My Mind
TTITLE8=Vida Lee
TTITLE9=Life Is Too Short
TTITLE10=I Get So Weary
TTITLE11=You Don't Understand
TTITLE12=I'm About To Lose My Mind
TTITLE13=Love Is Just A Gamble
TTITLE14=Alimony Blues
TTITLE15=Glamour Girl
TTITLE16=Got No Use For You
TTITLE17=I'm Still In Love With You
TTITLE18=Look Me In the Eye
TTITLE19=No Reason
TTITLE20=I'll Understand
TTITLE21=Too Lazy
TTITLE22=Railroad Station Blues
TTITLE23=You Just Wanted To Use Me
TTITLE24=The Sun Went Down
EXTD=
EXTT0=
EXTT1=
EXTT2=
EXTT3=
EXTT4=
EXTT5=
EXTT6=
EXTT7=
EXTT8=
EXTT9=
EXTT10=
EXTT11=
EXTT12=
EXTT13=
EXTT14=
EXTT15=
EXTT16=
EXTT17=
EXTT18=
EXTT19=
EXTT20=
EXTT21=
EXTT22=
EXTT23=
EXTT24=
PLAYORDER=
